<svg width="403" height="332" viewBox="0 0 403 332" fill="none" xmlns="http://www.w3.org/2000/svg">
<path d="M124.551 230.64C124.494 230.606 127.351 223.977 130.995 222.48L133.319 226.329C133.319 226.329 128.5 229.894 126.869 231.862L124.551 230.64Z" fill="#E3F0FF"/>
<path d="M147.974 206.002C146.3 206.241 142.852 204.794 141.462 204.484C139.521 204.053 136.269 209.237 133.642 211.971C131.015 214.704 125.161 214.716 118.97 219.418C114.577 222.745 113.539 231.048 113.412 235.936C112.967 235.564 112.555 235.154 112.18 234.711C108.431 230.332 111.359 223.566 114.804 218.557C118.249 213.549 121.538 212.575 125.256 211.48C128.184 210.688 130.875 209.194 133.095 207.126C134.9 205.474 136.965 201.78 140.187 201.799C141.726 201.827 143.236 202.223 144.591 202.954C145.946 203.685 147.106 204.731 147.974 206.002Z" fill="#E3F0FF"/>
<path d="M281.084 300.48C278.344 306.321 266.85 310.809 263.971 311.284C261.093 311.76 258.069 313.033 252.361 318.24C251.233 319.285 249.921 320.113 248.491 320.682C247.473 320.131 246.058 320.34 244.669 321.016C242.173 320.225 238.671 318.767 238.778 316.824C238.939 313.821 243.633 311.292 245.364 310.917C247.096 310.542 255.518 307.301 259.074 302.422C262.292 297.988 276.732 288.065 281.044 287.949C283.082 291.431 282.838 296.745 281.084 300.48Z" fill="#E3F0FF"/>
<path d="M270.314 253.103C267.776 263.101 263.927 275.903 262.025 282.079C254.262 282.55 251.302 284.204 251.174 286.179C250.686 293.718 248.389 296.438 243.88 296.771C242.986 296.849 240.205 298.795 239.49 298.989C239.971 295.673 241.718 289.225 243.284 286.87C246.331 282.25 249.898 256.8 249.898 256.8C249.898 256.8 263.199 251.653 270.314 253.103Z" fill="#327BED"/>
<path d="M238.312 53.8384C237.538 55.5305 236.556 57.1199 235.39 58.5702C235.062 58.3383 234.789 58.0377 234.589 57.6892C234.39 57.3406 234.269 56.9527 234.235 56.5526C234.171 55.8145 234.402 55.081 234.878 54.5134C235.354 53.9458 236.037 53.5907 236.775 53.5261C237.307 53.4763 237.842 53.585 238.312 53.8384Z" fill="#E3F0FF"/>
<path d="M265.204 186.509C261.674 186.579 257.876 174.777 256.495 173.08C254.916 171.145 247.714 178.91 242.755 179.112C237.795 179.315 246.575 171.621 246.575 171.621C246.575 171.621 239.004 176.135 236.275 174.348C233.545 172.561 243.962 167.373 239.227 165.299C234.492 163.225 249.721 158.357 250.06 158.35C250.882 158.332 251.598 158.323 252.044 158.307C253.089 158.342 254.129 158.46 255.156 158.659C256.645 163.622 258.552 168.45 260.856 173.091C262.103 175.455 263.63 180.406 265.204 186.509Z" fill="#E3F0FF"/>
<path d="M236.965 189.025C236.965 189.025 242.834 189.798 241.644 192.923C240.453 196.047 234.061 195.281 233.673 195.245C234.151 195.604 243.843 202.83 240.391 205.289C236.939 207.749 230.824 200.464 230.908 201.597C230.992 202.73 232.637 211.145 230.014 212.599C227.964 205.283 224.617 193.449 224.617 193.449L222.486 193.836C221.415 195.709 220.44 197.636 219.563 199.608C219.174 198.509 219.305 197.712 215.209 198.448C211.113 199.184 206.471 197.109 211.703 192.984C216.936 188.859 241.139 179.577 246.886 181.955C252.633 184.334 236.965 189.025 236.965 189.025Z" fill="#E3F0FF"/>
<path d="M205.28 204.278C197.294 210.747 194.444 222.283 197.946 221.099C201.448 219.914 204.173 214.699 206.893 212.234C209.613 209.77 211.391 207.288 211.36 204.201C211.342 201.452 209.741 200.668 205.28 204.278Z" fill="#E3F0FF"/>
<path d="M211.531 178.693C208.799 178.64 201.237 181.135 209.048 183.68C216.859 186.224 227.456 182.747 227.958 181.347C228.459 179.947 229.658 178.764 224.953 178.528C220.248 178.293 211.531 178.693 211.531 178.693Z" fill="#E3F0FF"/>
<path d="M202.79 174.234C202.79 174.234 205.434 178.471 203.503 182.384C201.573 186.297 192.96 173.538 192.96 173.538C192.96 173.538 191.991 177.775 189.606 179.224C188.459 180.06 187.521 181.149 186.864 182.407C183.133 187.926 179.959 191.532 177.19 193.785C180.307 187.056 182.627 180.382 184.9 178.01C187.441 175.346 194.427 159.211 195.147 156.698C196.255 157.819 197.425 158.876 198.652 159.866C198.224 161.406 197.821 162.959 197.715 163.692C197.463 165.386 208.033 167.142 212.751 170.358C217.47 173.574 202.79 174.234 202.79 174.234Z" fill="#E3F0FF"/>
<path d="M249.663 34.672C248.561 37.9347 245.754 38.866 242.602 39.3883C236.04 40.4632 229.85 34.5255 227.349 31.4778C225.943 29.7595 225.686 30.6063 225.704 30.8975C226.076 37.6138 222.408 40.8623 218.847 44.0166C219 42.3238 216.978 40.2588 215.825 39.8588C215.286 35.9743 215.346 32.03 216.004 28.1638C217.08 21.4364 221.604 23.1361 222.47 22.8138C223.335 22.4916 223.919 20.9767 223.944 20.1194C223.969 19.262 222.949 14.8136 224.129 13.4237L224.213 13.3316C224.268 13.2678 224.336 13.217 224.412 13.1829C224.489 13.1488 224.572 13.1323 224.655 13.1346C224.739 13.1369 224.821 13.1579 224.896 13.1961C224.97 13.2343 225.035 13.2888 225.086 13.3554C225.685 14.1731 226.105 15.1075 226.32 16.098C226.49 16.7225 226.585 17.1919 226.585 17.1919L226.468 17.3485L226.35 17.4975C226.166 17.7237 226.034 17.9879 225.964 18.2711C225.894 18.5543 225.888 18.8494 225.946 19.1353C226.112 19.8912 226.755 19.5807 227.831 18.0459C228.804 16.6665 230.898 14.9809 231.595 15.1049C232.231 16.0354 230.065 17.6116 228.784 18.9872C228.531 19.356 228.384 20.2317 231.129 20.5231C232.602 20.7436 234.016 21.2565 235.288 22.0317C236.56 22.8069 237.664 23.8287 238.535 25.037C238.946 25.7315 239.439 26.3738 240.004 26.95C239.416 27.3635 238.11 28.7182 239.693 29.4733C240.85 30.0192 242.615 28.9635 243.426 28.1144C243.602 28.099 243.793 28.0823 243.992 28.0649C245.882 28.0258 247.723 28.6656 249.181 29.8682C249.026 30.7713 248.681 31.6312 248.169 32.3913C248.591 32.6133 248.95 32.9392 249.211 33.3382C249.472 33.7372 249.628 34.1962 249.663 34.672Z" fill="#327BED"/>
<path d="M188.983 107.823C184.7 112.674 180.588 117.533 179.25 119.861L177.953 122.64C174.797 119.326 170.027 114.027 169.907 113.798C169.805 113.649 169.721 113.488 169.657 113.32C169.301 111.81 168.726 106.383 173.094 108.581C175.718 109.923 177.884 112.016 179.314 114.593C179.314 114.593 186.399 107.517 186.704 107.491L186.781 107.484L188.983 107.823Z" fill="#E3F0FF"/>
<path d="M346.193 75.4173C346.221 75.5616 346.211 75.7108 346.164 75.8501C346.117 75.9894 346.034 76.1139 345.924 76.2113C345.297 76.7053 341.231 74.6187 339.385 74.4721C337.538 74.3255 334.676 75.3309 332.329 74.4808C330.474 73.687 328.668 72.7825 326.922 71.772C326.922 71.772 322.952 73.7681 322.134 74.194L322.009 74.2665C319.518 75.7249 314.262 78.7964 308.666 82.0209C308.791 81.9484 310.929 78.3793 313.284 76.3319C315.64 74.2845 324.969 68.9923 326.762 68.8893C328.556 68.7862 331.718 72.693 334.086 72.4627C336.207 72.3156 342.813 71.6529 346.193 75.4173Z" fill="#E3F0FF"/>
<path d="M273.047 68.6891C277.637 70.3368 281.104 71.8363 281.648 73.2139C282.563 75.5684 278.772 78.0264 277.042 75.3426C275.313 72.6588 279.684 70.3195 283.36 69.4432C287.035 68.567 313.892 62.7658 321.745 59.0896C329.597 55.4134 334.663 53.1675 336.67 51.8902C338.676 50.613 345.36 45.5521 346.393 45.3847" stroke="#327BED" stroke-width="0.57561" stroke-linecap="round" stroke-linejoin="round"/>
<path d="M192.345 104.07C197.057 98.8423 201.181 94.46 201.181 94.46" stroke="#3BFF58" stroke-width="0.57561" stroke-linecap="round" stroke-linejoin="round"/>
<path d="M174.458 84.2873C179.371 79.2351 187.785 70.7948 192.057 67.2316C196.605 63.4747 203.676 61.4308 207.208 60.5902" stroke="#3BFF58" stroke-width="0.57561" stroke-linecap="round" stroke-linejoin="round"/>
<path d="M270.79 81.2897C269.108 87.3382 267.335 92.6088 268.325 99.4328C263.587 98.1062 254.759 95.6506 254.353 95.7632C255.259 105.245 256.265 122.46 255.552 129.202C254.615 138.121 259.105 140.84 258.885 142.986C258.664 145.131 256.561 145.393 257.115 147.062C257.565 148.417 260.851 153.137 260.846 156.427C256.683 155.69 250.767 155.075 246.104 155.853C238.246 157.172 221.708 165.129 213.469 162.884C205.229 160.638 195.907 155.175 196.962 153.149C198.018 151.123 203.307 145.36 202.39 142.451C201.473 139.542 207.053 137.374 205.375 133.946C203.696 130.518 206.349 120.34 202.92 114.693C199.49 109.045 200.163 105.643 200.158 105.497C200.153 105.351 213.311 106.133 209.035 103.488C204.759 100.842 203.973 100.849 204.795 100.461C205.616 100.073 215.435 95.447 210.846 94.7775C208.059 94.4003 205.231 95.0561 202.895 96.6211C202.895 96.6211 204.098 83.9581 193.138 99.5779C190.4 103.508 184.462 99.035 183.972 97.7527C183.483 96.4704 178.875 94.3466 179.257 91.5859C179.64 88.8252 178.161 86.6279 178.246 85.226C178.332 83.8241 185.933 76.2177 193.947 69.5535C201.712 63.1115 209.076 63.8077 209.076 63.8077C215.558 72.1081 227.299 71.4045 230.174 65.3441C230.174 65.3441 235.276 64.4046 237.331 60.6809C239.553 59.6621 263.588 66.8583 270.343 71.2441C271.081 74.1379 271.662 78.1318 270.79 81.2897Z" fill="#48FF3B"/>
<path d="M217.906 310.115C218.345 315.111 216.95 320.096 213.983 324.14C211.016 328.184 206.679 331.009 201.781 332.09C196.883 333.17 191.76 332.431 187.367 330.011C182.974 327.591 179.612 323.655 177.908 318.938C181.29 322.112 185.643 324.055 190.264 324.454C194.885 324.852 199.506 323.682 203.381 321.133C207.257 318.584 210.161 314.805 211.626 310.404C213.09 306.003 213.03 301.236 211.455 296.874C215.164 300.341 217.461 305.057 217.906 310.115Z" fill="#E3F0FF"/>
<path d="M184.25 242.081C181.568 245.066 175.191 249.137 170.218 249.009C168.472 249.05 166.739 248.694 165.15 247.966C165.324 245.824 166.135 243.784 167.48 242.109C168.824 240.433 170.64 239.199 172.693 238.566C174.745 237.933 176.941 237.93 178.996 238.556C181.05 239.183 182.87 240.412 184.219 242.083L184.25 242.081Z" fill="#E3F0FF"/>
<path d="M272.877 239.52C267.419 238.91 261.897 239.255 256.557 240.539C255.637 238.192 255.391 235.634 255.847 233.154C256.303 230.674 257.442 228.371 259.138 226.504C260.833 224.638 263.016 223.282 265.44 222.59C267.865 221.898 270.435 221.897 272.86 222.587C272.865 222.649 272.87 222.702 272.875 222.763C273.282 225.031 273.629 231.026 272.877 239.52Z" fill="#E3F0FF"/>
<path d="M168.546 106.429C168.775 109.029 167.971 111.615 166.306 113.625C164.642 115.636 162.252 116.909 159.655 117.169C160.239 115.626 160.745 114.054 161.169 112.46C161.661 110.422 164.192 105.809 166.722 101.52C167.763 102.961 168.393 104.658 168.546 106.429Z" fill="#E3F0FF"/>
<path d="M296.43 89.1325C294.507 90.2176 292.831 91.1423 291.581 91.8218C285.021 95.3849 280.736 96.3376 275.761 95.3938C275.744 92.9639 276.513 90.5936 277.954 88.637C279.395 86.6803 281.43 85.2424 283.756 84.5379C286.081 83.8334 288.572 83.9002 290.857 84.7283C293.141 85.5565 295.097 87.1014 296.43 89.1325Z" fill="#E3F0FF"/>
<path d="M337.372 54.2785C340.135 52.6654 350.166 48.6214 350.64 48.5799" stroke="#327BED" stroke-width="0.57561" stroke-linecap="round" stroke-linejoin="round"/>
<path d="M339.823 56.5831C344.016 55.3765 355.818 54.4827 355.818 54.4827" stroke="#327BED" stroke-width="0.57561" stroke-linecap="round" stroke-linejoin="round"/>
<path d="M340.143 60.246C345.513 59.5995 350.83 58.5706 356.053 57.167" stroke="#327BED" stroke-width="0.57561" stroke-linecap="round" stroke-linejoin="round"/>
<path d="M326.245 71.5158C326.46 71.6047 326.685 71.7083 326.935 71.8329C328.681 72.8433 330.487 73.7479 332.341 74.5417C334.689 75.3918 337.554 74.4169 339.398 74.5329C341.241 74.649 345.307 76.7355 345.937 76.2721C346.047 76.1747 346.13 76.0502 346.177 75.9109C346.224 75.7717 346.234 75.6225 346.206 75.4781C345.918 74.4205 345.353 73.4591 344.568 72.6939C342.957 70.8394 339.144 69.7863 337.425 69.1586C335.706 68.5308 335.61 66.8135 336.224 66.2591C336.838 65.7046 354.637 62.6527 355.876 61.9281C357.114 61.2034 358.281 60.2769 357.273 59.4946C356.265 58.7122 347.234 59.7565 344.076 59.7632" stroke="#327BED" stroke-width="0.57561" stroke-linecap="round" stroke-linejoin="round"/>
<path d="M272.9 94.657C273.838 94.9469 274.792 95.1824 275.758 95.3622C280.733 96.306 285 95.3241 291.578 91.7902C292.828 91.1107 294.519 90.1847 296.427 89.1009C299.995 87.0785 304.434 84.5483 308.671 82.0821C314.267 78.8499 319.523 75.7861 322.015 74.3277L322.139 74.2552L323.525 73.4483" stroke="#327BED" stroke-width="0.57561" stroke-linecap="round" stroke-linejoin="round"/>
<path d="M242.938 39.3437C241.81 44.0648 240.416 49.441 238.312 53.8392C237.538 55.5312 236.556 57.1206 235.39 58.5709C233.358 61.0599 230.827 62.5911 227.612 62.5718" stroke="#327BED" stroke-width="0.57561" stroke-linecap="round" stroke-linejoin="round"/>
<path d="M228.579 62.5254C228.579 62.5254 227.071 65.8931 225.653 65.7167C224.236 65.5403 220.953 64.8259 219.209 56.165C219.457 56.0894 221.696 62.8426 228.579 62.5254Z" fill="#327BED" stroke="#327BED" stroke-width="0.57561" stroke-linecap="round" stroke-linejoin="round"/>
<path d="M233.403 47.4885C232.755 49.9289 232.539 52.4639 232.765 54.9789C232.765 54.9789 229.818 55.8145 228.511 54.2647" stroke="#327BED" stroke-width="0.57561" stroke-linecap="round" stroke-linejoin="round"/>
<path d="M226.06 56.536C226.38 57.0218 226.794 57.439 227.277 57.7631C227.761 58.0872 228.304 58.3118 228.875 58.4237" stroke="#327BED" stroke-width="0.57561" stroke-linecap="round" stroke-linejoin="round"/>
<path d="M224.629 40.1826C228.214 39.7688 229.35 41.3103 229.839 42.6697" stroke="#327BED" stroke-width="0.57561" stroke-linecap="round" stroke-linejoin="round"/>
<path d="M236.18 43.7331C237.859 41.8759 239.461 42.144 240.246 42.3913" stroke="#327BED" stroke-width="0.57561" stroke-linecap="round" stroke-linejoin="round"/>
<path d="M228.146 48.527C228.396 47.7613 228.242 47.0245 227.803 46.8812C227.364 46.7379 226.805 47.2424 226.556 48.008C226.306 48.7736 226.459 49.5105 226.899 49.6538C227.338 49.7971 227.896 49.2926 228.146 48.527Z" fill="#327BED"/>
<path d="M236.9 49.4721C237.15 48.7065 236.996 47.9697 236.557 47.8264C236.118 47.6831 235.559 48.1875 235.309 48.9532C235.059 49.7188 235.213 50.4557 235.652 50.599C236.091 50.7423 236.65 50.2378 236.9 49.4721Z" fill="#327BED"/>
<path d="M218.844 43.9782C223.174 40.6333 226.393 36.2146 225.622 30.1418" stroke="#327BED" stroke-width="0.57561" stroke-linecap="round" stroke-linejoin="round"/>
<path d="M227.284 30.7207C229.905 35.4066 238.296 42.1223 246.359 38.2967C252.374 35.4592 248.292 30.801 245.335 32.1383" stroke="#327BED" stroke-width="0.57561" stroke-linecap="round" stroke-linejoin="round"/>
<path d="M240.784 28.1138C244.913 25.2025 252.025 26.6295 248.005 32.3664" stroke="#327BED" stroke-width="0.57561" stroke-linecap="round" stroke-linejoin="round"/>
<path d="M218.662 39.4335C219.794 38.3637 221.388 36.3291 220.537 33.8303" stroke="white" stroke-width="0.57561" stroke-linecap="round" stroke-linejoin="round"/>
<path d="M232.913 29.7278C234.851 33.7415 237.074 34.5871 239.523 33.6872" stroke="white" stroke-width="0.57561" stroke-linecap="round" stroke-linejoin="round"/>
<path d="M228.638 26.3037C230.444 25.3752 232.782 25.5868 233.598 26.3705" stroke="white" stroke-width="0.57561" stroke-linecap="round" stroke-linejoin="round"/>
<path d="M227.516 24.0513C228.359 23.1223 230.447 22.331 231.399 22.8179" stroke="white" stroke-width="0.57561" stroke-linecap="round" stroke-linejoin="round"/>
<path d="M209.371 60.1303C211.489 56.3005 213.132 52.2269 214.265 47.9996C212.088 47.5044 209.417 44.4561 210.62 41.5619C211.823 38.6678 215.428 39.8085 216.955 44.1432" stroke="#327BED" stroke-width="0.57561" stroke-linecap="round" stroke-linejoin="round"/>
<path d="M212.609 43.2533C213.608 43.8613 214.489 44.6457 215.208 45.5683" stroke="#327BED" stroke-width="0.57561" stroke-linecap="round" stroke-linejoin="round"/>
<path d="M214.336 40.4514C214.336 40.4514 210.064 20.417 221.654 20.7975C221.654 20.7975 222.118 20.2022 221.933 18.092C221.684 15.2478 223.721 12.7199 225.093 13.3472C226.465 13.9744 226.3 17.4557 226.3 17.4557" stroke="#327BED" stroke-width="0.57561" stroke-linecap="round" stroke-linejoin="round"/>
<path d="M225.461 19.4012C225.616 17.477 229.167 13.7765 231.099 14.7169C233.352 15.8141 228.135 18.6126 227.881 20.2912" stroke="#327BED" stroke-width="0.57561" stroke-linecap="round" stroke-linejoin="round"/>
<path d="M228.699 18.9877C229.01 18.6601 235.025 18.989 237.362 21.142C240.413 23.9567 241.831 26.7757 244.06 26.7193" stroke="#327BED" stroke-width="0.57561" stroke-linecap="round" stroke-linejoin="round"/>
<path d="M210.941 61.2572C213.682 64.0605 219.239 67.3417 225.661 65.7167" stroke="#327BED" stroke-width="0.57561" stroke-linecap="round" stroke-linejoin="round"/>
<path d="M208.366 62.6458C212.315 69.7424 225.73 74.0772 230.851 64.2764" stroke="#3BFF58" stroke-width="0.57561" stroke-linecap="round" stroke-linejoin="round"/>
<path d="M219.486 72.7124C224.694 73.682 228.806 71.7198 230.143 70.3548" stroke="white" stroke-width="0.57561" stroke-linecap="round" stroke-linejoin="round"/>
<path d="M198.12 72.6871C204.111 78.0258 206.174 83.6465 205.405 88.1514" stroke="white" stroke-width="0.57561" stroke-linecap="round" stroke-linejoin="round"/>
<path d="M253.639 82.2359C256.278 77.1669 257.887 74.1602 257.887 74.1602" stroke="white" stroke-width="0.57561" stroke-linecap="round" stroke-linejoin="round"/>
<path d="M255.089 83.8428C256.16 83.0283 257.323 82.3446 258.555 81.8062" stroke="white" stroke-width="0.57561" stroke-linecap="round" stroke-linejoin="round"/>
<path d="M218.162 127.142C220.354 127.721 222.128 127.481 232.274 117.264" stroke="white" stroke-width="0.57561" stroke-linecap="round" stroke-linejoin="round"/>
<path d="M200.004 99.1549C202.453 98.7075 204.868 98.0895 207.231 97.3054" stroke="#3BFF58" stroke-width="0.57561" stroke-linecap="round" stroke-linejoin="round"/>
<path d="M198.396 101.468C200.329 102.069 202.865 102.618 202.865 102.618" stroke="#3BFF58" stroke-width="0.57561" stroke-linecap="round" stroke-linejoin="round"/>
<path d="M211.869 136.229C218.204 138.194 222.847 138.427 227.204 136.798C232.151 134.963 248.318 124.797 248.318 124.797" stroke="white" stroke-width="0.57561" stroke-linecap="round" stroke-linejoin="round"/>
<path d="M207.815 140.797C209.631 141.986 211.572 142.971 213.604 143.735" stroke="white" stroke-width="0.57561" stroke-linecap="round" stroke-linejoin="round"/>
<path d="M243.614 144.553C246.402 145.572 249.364 146.028 252.329 145.894" stroke="white" stroke-width="0.57561" stroke-linecap="round" stroke-linejoin="round"/>
<path d="M237.017 149.637C242.214 150.392 249.285 149.489 249.285 149.489" stroke="white" stroke-width="0.57561" stroke-linecap="round" stroke-linejoin="round"/>
<path d="M188.969 107.84C184.686 112.69 180.574 117.549 179.236 119.878C179.117 120.067 179.011 120.264 178.918 120.468" stroke="#327BED" stroke-width="0.57561" stroke-linecap="round" stroke-linejoin="round"/>
<path d="M170.607 110.71C173.231 112.827 175.295 115.557 176.618 118.658" stroke="#327BED" stroke-width="0.57561" stroke-linecap="round" stroke-linejoin="round"/>
<path d="M138.52 163.725C138.52 163.725 139.542 170.299 141.68 174.835C142.267 176.093 145.545 178.426 146.61 179.142C147.674 179.857 148.009 178.495 148.111 176.576C148.213 174.656 146.632 173.677 144.814 169.006C142.739 163.694 147.117 158.874 148.977 158.295C150.837 157.716 150.885 163.467 149.974 165.55C149.062 167.633 149.454 171.058 150.509 171.666C151.564 172.275 152.676 170.021 153.615 167.543C154.554 165.064 160.128 153.491 160.128 153.491C160.128 153.491 161.263 151.935 164.696 146.35C167.83 141.23 174.564 130.756 176.638 125.313C176.816 124.868 176.966 124.412 177.089 123.948" stroke="#327BED" stroke-width="0.57561" stroke-linecap="round" stroke-linejoin="round"/>
<path d="M136.103 167.974C137.57 173.03 139.228 176.568 139.674 177.006C140.121 177.445 143.743 181.596 143.743 181.596" stroke="#327BED" stroke-width="0.57561" stroke-linecap="round" stroke-linejoin="round"/>
<path d="M134.746 172.19C135.799 175.95 136.651 178.118 137.047 178.507C137.443 178.896 140.549 181.636 140.549 181.636" stroke="#327BED" stroke-width="0.57561" stroke-linecap="round" stroke-linejoin="round"/>
<path d="M136.833 181.961C134.35 179.991 133.293 178.658 133.052 176.776C132.81 174.894 132.149 166.462 132.498 165.962C132.847 165.461 134.382 163.894 134.313 163.107C134.244 162.319 133.962 159.093 134.771 158.39C135.58 157.688 146.144 150.577 147.211 150.083C148.277 149.589 152.357 149.109 152.357 149.109" stroke="#327BED" stroke-width="0.57561" stroke-linecap="round" stroke-linejoin="round"/>
<path d="M172.284 92.9823C171.279 94.6111 169.222 97.9651 167.157 101.482C164.471 106 161.813 110.847 161.322 112.986C160.876 114.661 160.344 116.312 159.729 117.933C157.933 122.859 155.222 129.467 153.651 133.873C151.426 140.053 147.474 150.006 147.213 150.106" stroke="#327BED" stroke-width="0.57561" stroke-linecap="round" stroke-linejoin="round"/>
<path d="M195.145 156.683C194.425 159.196 187.439 175.331 184.899 177.995C182.358 180.66 179.743 188.723 176.022 196.206C172.301 203.689 166.374 214.847 166.374 214.847C171.051 221.548 179.032 227.437 191.289 225.941C192.387 225.807 193.412 225.632 194.366 225.441C201.561 223.941 205.038 220.979 209.734 222.609" stroke="#327BED" stroke-width="0.57561" stroke-linecap="round" stroke-linejoin="round"/>
<path d="M270.977 212.422C268.47 211.179 265.784 210.338 263.016 209.929C257.039 209.157 253.393 211.595 250.337 213.473C247.096 215.406 243.644 216.959 240.048 218.101C239.1 218.414 238.123 218.634 237.132 218.757C235.412 218.857 233.687 218.709 232.009 218.319L231.56 218.205C231.536 217.929 230.874 215.653 230.011 212.57C227.961 205.253 224.615 193.419 224.615 193.419L222.484 193.806C221.413 195.68 220.437 197.606 219.56 199.578C216.314 206.495 211.696 217.115 210.711 219.505" stroke="#327BED" stroke-width="0.57561" stroke-linecap="round" stroke-linejoin="round"/>
<path d="M255.179 158.657C256.668 163.62 258.575 168.448 260.879 173.089C262.103 175.455 263.63 180.406 265.204 186.509C268.075 197.575 271.11 212.448 272.86 222.588C272.865 222.649 272.87 222.702 272.875 222.764C273.267 225.041 273.598 231.028 272.862 239.521C272.799 240.297 272.721 241.074 272.635 241.852C272.549 242.63 272.378 243.755 272.138 244.977C271.898 246.2 271.627 247.503 271.287 248.904C271.181 249.368 271.069 249.847 270.95 250.336C270.742 251.217 270.514 252.13 270.28 253.067C266.809 266.761 260.863 285.702 260.863 285.702" stroke="#327BED" stroke-width="0.57561" stroke-linecap="round" stroke-linejoin="round"/>
<path d="M240.049 218.101C240.049 218.101 244.486 226.557 245.893 229.87C246.504 231.411 246.882 233.035 247.016 234.687C247.313 238.627 247.302 242.585 246.98 246.523C246.941 247.22 246.887 247.926 246.834 248.632C246.677 250.626 246.454 252.656 246.186 254.705C243.689 273.799 237.045 294.634 235.869 303.212" stroke="#327BED" stroke-width="0.57561" stroke-linecap="round" stroke-linejoin="round"/>
<path d="M263.811 226.677C266.47 226.336 268.552 226.801 267.255 227.916C266.493 228.556 265.656 229.1 264.762 229.537C264.762 229.537 269.343 229.675 270.66 231.17" stroke="#327BED" stroke-width="0.57561" stroke-linecap="round" stroke-linejoin="round"/>
<path d="M261.192 231.967C262.404 232.84 263.739 233.528 265.153 234.009" stroke="#327BED" stroke-width="0.57561" stroke-linecap="round" stroke-linejoin="round"/>
<path d="M272.885 239.519C267.427 238.91 261.904 239.255 256.565 240.539C253.314 241.261 250.153 242.338 247.139 243.752" stroke="#327BED" stroke-width="0.57561" stroke-linecap="round" stroke-linejoin="round"/>
<path d="M272.168 244.975C271.866 246.542 271.465 248.38 270.984 250.371C262.534 250.442 254.155 251.917 246.189 254.736C246.456 252.686 246.679 250.656 246.836 248.662C254.76 245.058 263.545 243.779 272.168 244.975Z" fill="#3BFF6C" stroke="#3BFF3E" stroke-width="0.57561" stroke-linecap="round" stroke-linejoin="round"/>
<path d="M252.307 160.973C246.004 162.102 242.036 164.391 244.446 164.465C246.857 164.539 252.765 163.737 252.613 164.467C252.461 165.197 243.713 168.412 241.651 170.819" stroke="#327BED" stroke-width="0.57561" stroke-linecap="round" stroke-linejoin="round"/>
<path d="M246.287 175.106C248.308 172.841 252.31 169.186 253.727 168.915" stroke="#327BED" stroke-width="0.57561" stroke-linecap="round" stroke-linejoin="round"/>
<path d="M214.862 194.48C218.598 191.919 234.918 185.961 240.963 185.139" stroke="#327BED" stroke-width="0.57561" stroke-linecap="round" stroke-linejoin="round"/>
<path d="M219.956 194.327C223.905 193.404 236.229 191.963 236.229 191.963" stroke="#327BED" stroke-width="0.57561" stroke-linecap="round" stroke-linejoin="round"/>
<path d="M229.288 196.115C233.136 198.089 236.738 202.011 236.738 202.011" stroke="#327BED" stroke-width="0.57561" stroke-linecap="round" stroke-linejoin="round"/>
<path d="M209.753 181.353C214.675 181.692 223.679 180.52 223.679 180.52" stroke="#327BED" stroke-width="0.57561" stroke-linecap="round" stroke-linejoin="round"/>
<path d="M197.44 166.706C200.821 170.131 204.368 169.99 204.368 169.99" stroke="#327BED" stroke-width="0.57561" stroke-linecap="round" stroke-linejoin="round"/>
<path d="M194.471 167.998C195.458 170.469 197.604 175.012 199.984 176.945" stroke="#327BED" stroke-width="0.57561" stroke-linecap="round" stroke-linejoin="round"/>
<path d="M199.899 216.829C202.222 213.621 207.61 207.132 207.61 207.132" stroke="#327BED" stroke-width="0.57561" stroke-linecap="round" stroke-linejoin="round"/>
<path d="M132.958 218.503C139.278 224.953 144.338 230.042 148.455 234.042C149.736 235.301 150.93 236.445 152.047 237.495C154.885 240.25 157.865 242.857 160.973 245.304C162.276 246.339 163.687 247.231 165.181 247.964C166.769 248.692 168.503 249.048 170.249 249.007C175.191 249.137 181.569 245.066 184.281 242.079C184.422 241.928 184.547 241.778 184.665 241.629C184.903 241.343 185.114 241.036 185.294 240.711C187.625 236.355 190.373 233.079 196.571 224.925" stroke="#327BED" stroke-width="0.57561" stroke-linecap="round" stroke-linejoin="round"/>
<path d="M163.395 227.819C164.065 224.294 168.306 217.374 168.306 217.374" stroke="#327BED" stroke-width="0.57561" stroke-linecap="round" stroke-linejoin="round"/>
<path d="M166.766 220.028C166.543 219.947 165.717 219.665 164.529 219.199C162.513 218.408 160.544 217.506 158.629 216.495C154.713 214.434 150.587 211.575 149.183 208.207C148.86 207.431 148.455 206.692 147.973 206.002C147.102 204.732 145.939 203.689 144.582 202.96C143.225 202.232 141.713 201.839 140.173 201.815C136.951 201.797 134.886 205.491 133.081 207.143C130.861 209.21 128.17 210.705 125.242 211.496C121.486 212.595 118.239 213.526 114.79 218.574C111.341 223.621 108.417 230.349 112.166 234.728C112.541 235.171 112.953 235.581 113.398 235.953C114.901 237.306 116.839 238.075 118.86 238.12C120.882 238.166 122.852 237.484 124.414 236.199C127.47 233.528 131.561 230.712 135.516 227.23" stroke="#327BED" stroke-width="0.57561" stroke-linecap="round" stroke-linejoin="round"/>
<path d="M165.786 221.863C165.786 221.863 161.602 221.505 158.71 227.104C155.818 232.704 156.65 238.779 157.549 242.537" stroke="#327BED" stroke-width="0.57561" stroke-linecap="round" stroke-linejoin="round"/>
<path d="M164.529 219.2C164.529 219.2 159.791 219.383 155.149 225.051C151.878 229.051 151.807 234.588 152.046 237.495C150.93 236.445 149.736 235.301 148.454 234.042C148.61 230.3 149.633 226.644 151.442 223.365C153.173 220.467 155.657 218.094 158.63 216.495C160.544 217.506 162.513 218.409 164.529 219.2V219.2Z" fill="#5FFF3B" stroke="#3BFF45" stroke-width="0.57561" stroke-linecap="round" stroke-linejoin="round"/>
<path d="M136.746 222.354C136.577 218.663 141.302 207.857 147.134 209.704" stroke="#327BED" stroke-width="0.57561" stroke-linecap="round" stroke-linejoin="round"/>
<path d="M134.77 225.3C131.91 227.197 129.261 229.394 126.869 231.855C125.608 231.268 124.398 230.578 123.252 229.79C123.252 229.79 125.784 222.365 130.825 220.985" stroke="#327BED" stroke-width="0.57561" stroke-linecap="round" stroke-linejoin="round"/>
<path d="M132.299 222.597C132.865 223.291 133.391 224.017 133.876 224.77" stroke="#327BED" stroke-width="0.57561" stroke-linecap="round" stroke-linejoin="round"/>
<path d="M128.714 224.066C129.592 224.838 130.366 225.721 131.016 226.692" stroke="#327BED" stroke-width="0.57561" stroke-linecap="round" stroke-linejoin="round"/>
<path d="M126.51 226.955C127.295 227.544 128 228.234 128.607 229.006" stroke="#327BED" stroke-width="0.57561" stroke-linecap="round" stroke-linejoin="round"/>
<path d="M86.8358 208.578C89.2746 218.048 99.0343 239.167 112.963 249.373" stroke="#327BED" stroke-width="0.57561" stroke-linecap="round" stroke-linejoin="round"/>
<path d="M85.807 229.23C89.1438 237.782 94.2681 245.015 95.6823 246.386" stroke="#327BED" stroke-width="0.57561" stroke-linecap="round" stroke-linejoin="round"/>
<path d="M275.864 250.406C281.431 249.226 292.516 248.95 292.516 248.95C297.482 244.779 304.352 244.231 303.195 247.121" stroke="#327BED" stroke-width="0.57561" stroke-linecap="round" stroke-linejoin="round"/>
<path d="M300.419 248.843C303.259 246.083 310.332 243.977 308.327 248.359" stroke="#327BED" stroke-width="0.57561" stroke-linecap="round" stroke-linejoin="round"/>
<path d="M308.732 247.531C308.732 247.531 317.359 244.334 316.255 248.629" stroke="#327BED" stroke-width="0.57561" stroke-linecap="round" stroke-linejoin="round"/>
<path d="M322.958 248.019C337.144 247.256 380.218 246.469 396.417 247.756" stroke="#327BED" stroke-width="0.57561" stroke-linecap="round" stroke-linejoin="round"/>
<path d="M302.214 289.087L309.859 288.418" stroke="#327BED" stroke-width="0.57561" stroke-linecap="round" stroke-linejoin="round"/>
<path d="M314.196 286.913C319.395 286.366 332.357 285.702 335.064 285.65" stroke="#327BED" stroke-width="0.57561" stroke-linecap="round" stroke-linejoin="round"/>
<path d="M316.079 308.436C322.372 307.631 336.898 306.615 336.898 306.615" stroke="#327BED" stroke-width="0.57561" stroke-linecap="round" stroke-linejoin="round"/>
<path d="M21.9935 284.173C45.2951 279.292 79.354 275.141 97.26 273.574C115.166 272.008 152.134 266.77 152.134 266.77C152.134 266.77 147.388 265.36 148.076 263.273C148.764 261.187 159.866 265.593 159.866 265.593" stroke="#327BED" stroke-width="0.57561" stroke-linecap="round" stroke-linejoin="round"/>
<path d="M158.861 265.196C158.861 265.196 156.265 261.94 159.488 260.911C162.71 259.882 165.855 265.185 166.881 263.076C167.906 260.968 168.538 259.657 171.896 262.638" stroke="#327BED" stroke-width="0.57561" stroke-linecap="round" stroke-linejoin="round"/>
<path d="M174.313 263.412C182.164 261.831 210.462 257.168 225.247 256.568" stroke="#327BED" stroke-width="0.57561" stroke-linecap="round" stroke-linejoin="round"/>
<path d="M249.38 321.497C249.174 321.14 248.864 320.856 248.492 320.681C247.473 320.131 246.058 320.339 244.669 321.016C244.382 321.154 244.105 321.312 243.84 321.489C242.992 322.037 242.24 322.719 241.613 323.51" stroke="#327BED" stroke-width="0.57561" stroke-linecap="round" stroke-linejoin="round"/>
<path d="M247.262 323.27C248.871 321.588 254.763 317.953 256.418 319.788C258.073 321.623 255.997 323.785 255.997 323.785" stroke="#327BED" stroke-width="0.57561" stroke-linecap="round" stroke-linejoin="round"/>
<path d="M256.763 322.593C256.763 322.593 263.42 319.43 262.886 323.182C262.886 323.182 270.492 321.269 275.803 320.511" stroke="#327BED" stroke-width="0.57561" stroke-linecap="round" stroke-linejoin="round"/>
<path d="M285.368 320.645L291.484 320.11" stroke="#327BED" stroke-width="0.57561" stroke-linecap="round" stroke-linejoin="round"/>
<path d="M225.457 329.322C225.131 327.448 226.737 326.337 231.83 327.671C231.83 327.671 228.828 325.229 230.886 324.718C232.477 324.324 236.488 327.101 236.488 327.101" stroke="#327BED" stroke-width="0.57561" stroke-linecap="round" stroke-linejoin="round"/>
<path d="M158.368 322.612C156.789 313.374 159.257 306.355 162.161 303.528" stroke="#327BED" stroke-width="0.57561" stroke-linecap="round" stroke-linejoin="round"/>
<path d="M143.64 320.525C142.184 316.03 144.94 311.167 146.171 311.059" stroke="#327BED" stroke-width="0.57561" stroke-linecap="round" stroke-linejoin="round"/>
<path d="M120.776 296.062C129.262 295.227 138.131 294.544 138.131 294.544" stroke="#327BED" stroke-width="0.57561" stroke-linecap="round" stroke-linejoin="round"/>
<path d="M135.992 290.787C139.428 290.425 142.874 290.185 142.874 290.185" stroke="#327BED" stroke-width="0.57561" stroke-linecap="round" stroke-linejoin="round"/>
<path d="M145.081 293.397C146.734 293.19 149.92 292.973 149.92 292.973" stroke="#327BED" stroke-width="0.57561" stroke-linecap="round" stroke-linejoin="round"/>
<path d="M60.3483 324.191C64.8107 323.947 67.4285 323.048 67.5271 321.622C67.6258 320.196 77.2253 320.55 78.4734 320.287C79.7216 320.023 80.2583 318.497 83.1926 319.542C86.1269 320.588 100.54 318.726 100.54 318.726" stroke="#327BED" stroke-width="0.57561" stroke-linecap="round" stroke-linejoin="round"/>
<path d="M103.612 316.146C109.059 315.97 114.75 315.249 114.75 315.249" stroke="#327BED" stroke-width="0.57561" stroke-linecap="round" stroke-linejoin="round"/>
<path d="M36.8151 327.222C39.7628 326.571 50.2516 326.963 50.2516 326.963" stroke="#327BED" stroke-width="0.57561" stroke-linecap="round" stroke-linejoin="round"/>
<path d="M248.492 320.682C249.921 320.114 251.233 319.286 252.361 318.24C258.069 313.034 261.101 311.759 263.971 311.285C266.842 310.81 278.344 306.321 281.085 300.481C282.838 296.745 283.082 291.431 281.068 287.963C280.495 286.933 279.665 286.07 278.658 285.459C277.65 284.847 276.502 284.508 275.324 284.475C267.758 284.035 258.813 292.044 258.813 292.044" stroke="#327BED" stroke-width="0.57561" stroke-linecap="round" stroke-linejoin="round"/>
<path d="M243.863 321.502C241.58 321.48 239.351 320.801 237.444 319.545C235.161 317.841 233.617 314.279 234.928 309.449C236.239 304.619 241.855 299.421 245.88 299.292C249.906 299.163 249.906 297.931 251.676 295.703C253.445 293.476 252.607 292.879 257.16 289.792" stroke="#327BED" stroke-width="0.57561" stroke-linecap="round" stroke-linejoin="round"/>
<path d="M251.673 295.666C251.673 295.666 252.99 291.614 252.914 290.126C252.837 288.638 253.405 286.932 254.45 286.555C255.496 286.179 260.574 284.602 261.071 285.976C261.447 287.153 261.737 288.356 261.941 289.575" stroke="#327BED" stroke-width="0.57561" stroke-linecap="round" stroke-linejoin="round"/>
<path d="M235.871 317.849C235.772 317.689 237.758 311.59 241.802 309.742C245.847 307.893 250.132 308.874 256.604 301.398" stroke="#327BED" stroke-width="0.57561" stroke-linecap="round" stroke-linejoin="round"/>
<path d="M258.823 299.285C261.45 296.559 269.656 290.317 272.568 289.084" stroke="#327BED" stroke-width="0.57561" stroke-linecap="round" stroke-linejoin="round"/>
<path d="M276.703 290.471C278.164 292.115 280.691 295.9 280.691 295.9" stroke="#327BED" stroke-width="0.57561" stroke-linecap="round" stroke-linejoin="round"/>
<path d="M272.931 293.228C274.675 294.94 278.009 298.439 278.009 298.439" stroke="#327BED" stroke-width="0.57561" stroke-linecap="round" stroke-linejoin="round"/>
<path d="M269.176 295.483L274.291 300.582" stroke="#327BED" stroke-width="0.57561" stroke-linecap="round" stroke-linejoin="round"/>
<path d="M266.693 296.601L271.911 302.878" stroke="#327BED" stroke-width="0.57561" stroke-linecap="round" stroke-linejoin="round"/>
<path d="M264.872 299.919L269.765 305.038" stroke="#327BED" stroke-width="0.57561" stroke-linecap="round" stroke-linejoin="round"/>
<path d="M260.465 302.647L266.559 308.285" stroke="#327BED" stroke-width="0.57561" stroke-linecap="round" stroke-linejoin="round"/>
<path d="M255.141 307.388L258.972 310.497" stroke="#327BED" stroke-width="0.57561" stroke-linecap="round" stroke-linejoin="round"/>
<path d="M250.389 309.522L254.864 313.299" stroke="#327BED" stroke-width="0.57561" stroke-linecap="round" stroke-linejoin="round"/>
<path d="M247.687 311.484L251.526 315.031" stroke="#327BED" stroke-width="0.57561" stroke-linecap="round" stroke-linejoin="round"/>
<path d="M244.445 313.709L249.157 317.642" stroke="#327BED" stroke-width="0.57561" stroke-linecap="round" stroke-linejoin="round"/>
<path d="M240.995 316.184L246.223 320.465" stroke="#327BED" stroke-width="0.57561" stroke-linecap="round" stroke-linejoin="round"/>
<path d="M220.995 309.844C221.397 314.521 220.403 319.213 218.14 323.326C215.877 327.44 212.446 330.79 208.28 332.954C204.114 335.119 199.4 336 194.733 335.487C190.066 334.974 185.656 333.09 182.06 330.072C178.464 327.054 175.842 323.039 174.527 318.532C173.211 314.025 173.26 309.23 174.669 304.751C176.077 300.273 178.78 296.312 182.438 293.369C186.096 290.426 190.544 288.633 195.22 288.216C196.058 288.144 196.898 288.114 197.739 288.127C203.6 288.246 209.211 290.525 213.495 294.526C217.779 298.528 220.435 303.97 220.953 309.809L220.995 309.844Z" stroke="#327BED" stroke-width="0.57561" stroke-linecap="round" stroke-linejoin="round"/>
<path d="M189.63 293.274L192.403 297.846" stroke="#327BED" stroke-width="0.57561" stroke-linecap="round" stroke-linejoin="round"/>
<path d="M210.592 292.211L203.596 298.709L195.408 297.591L192.655 292.532C192.655 292.532 195.572 290.035 197.804 288.16C202.369 288.244 206.811 289.651 210.592 292.211Z" fill="#327BED" stroke="#327BED" stroke-width="0.57561" stroke-linecap="round" stroke-linejoin="round"/>
<path d="M194.652 300.655C194.285 300.779 192.235 306.051 192.235 306.051" stroke="#327BED" stroke-width="0.57561" stroke-linecap="round" stroke-linejoin="round"/>
<path d="M202.848 301.694L205.028 307.158" stroke="#327BED" stroke-width="0.57561" stroke-linecap="round" stroke-linejoin="round"/>
<path d="M176.179 301.107L182.32 308.875" stroke="#327BED" stroke-width="0.57561" stroke-linecap="round" stroke-linejoin="round"/>
<path d="M177.528 320.935C178.279 319.781 179.089 318.666 179.955 317.595" stroke="#327BED" stroke-width="0.57561" stroke-linecap="round" stroke-linejoin="round"/>
<path d="M214.393 305.091C215.698 303.629 218.532 301.154 218.532 301.154" stroke="#327BED" stroke-width="0.57561" stroke-linecap="round" stroke-linejoin="round"/>
<path d="M213.013 319.88L217.612 324.277" stroke="#327BED" stroke-width="0.57561" stroke-linecap="round" stroke-linejoin="round"/>
<path d="M204.735 329.348C204.801 329.134 207.962 322.202 207.962 322.202" stroke="#327BED" stroke-width="0.57561" stroke-linecap="round" stroke-linejoin="round"/>
<path d="M202.43 314.712C202.469 314.539 205.923 308.135 205.923 308.135L213.175 307.108L217.487 314.835L213.235 320.122L208.366 320.833L202.43 314.712Z" fill="#327BED" stroke="#327BED" stroke-width="0.57561" stroke-linecap="round" stroke-linejoin="round"/>
<path d="M200.386 315.56L193.941 315.423" stroke="#327BED" stroke-width="0.57561" stroke-linecap="round" stroke-linejoin="round"/>
<path d="M191.196 308.707L195.207 315.451L188.6 322.532L179.532 318.132L181.619 307.989L191.196 308.707Z" fill="#327BED" stroke="#327BED" stroke-width="0.57561" stroke-linecap="round" stroke-linejoin="round"/>
<path d="M188.6 322.531C188.552 322.867 191.429 328.447 191.429 328.447L189.345 331.049" stroke="#327BED" stroke-width="0.57561" stroke-linecap="round" stroke-linejoin="round"/>
<path d="M206.989 333.619C201.593 336.006 195.506 336.31 189.899 334.475C191.182 332.406 193.441 329.258 193.441 329.258C193.441 329.258 196.539 331.298 203.748 329.774L206.989 333.619Z" fill="#327BED" stroke="#327BED" stroke-width="0.57561" stroke-linecap="round" stroke-linejoin="round"/>
<path d="M268.325 99.4324C267.333 92.5855 269.109 87.3378 270.79 81.2893C271.662 78.1314 271.081 74.1375 270.404 71.2384C270.106 69.9314 269.736 68.6418 269.296 67.3755" stroke="#3BFF58" stroke-width="0.57561" stroke-linecap="round" stroke-linejoin="round"/>
<path d="M253.56 89.6084C252.391 84.9958 251.543 80.3076 251.023 75.5778" stroke="white" stroke-width="0.57561" stroke-linecap="round" stroke-linejoin="round"/>
<path d="M196.358 105.29C196.358 105.29 196.279 106.507 198.225 110.782C200.17 115.057 201.656 123.579 201.177 126.471C200.698 129.364 200.802 131.781 202.039 133.16C203.277 134.538 203.605 136.266 202.11 137.137C200.614 138.007 198.409 137.276 199.4 140.063C200.391 142.85 198.716 142.904 198.146 143.785C197.888 144.186 196.828 146.335 195.669 148.586C194.293 151.341 192.858 154.225 192.858 154.225C193.627 155.098 194.384 155.91 195.144 156.668C196.252 157.788 197.422 158.846 198.649 159.835C206.708 166.357 213.463 166.513 218.348 166.879C224.359 167.339 224.14 164.832 228.163 164.056C232.345 163.306 236.412 162.015 240.261 160.216C243.368 158.939 246.699 158.296 250.058 158.327C250.88 158.309 251.596 158.3 252.041 158.284C253.087 158.319 254.127 158.437 255.154 158.636C255.848 158.737 256.567 158.844 257.242 158.908C258.609 159.027 259.79 158.97 260.233 158.392C260.648 157.815 260.858 157.116 260.829 156.406C260.834 153.116 257.548 148.396 257.098 147.041C256.543 145.371 258.647 145.11 258.868 142.965C259.088 140.819 254.59 138.1 255.535 129.181C256.247 122.439 255.242 105.223 254.335 95.7419" stroke="#3BFF58" stroke-width="0.57561" stroke-linecap="round" stroke-linejoin="round"/>
<path d="M254.345 95.7643C254.751 95.6517 263.587 98.1067 268.318 99.4339L269.756 99.8397L271.256 100.263" stroke="#3BFF58" stroke-width="0.57561" stroke-linecap="round" stroke-linejoin="round"/>
<path d="M240.672 91.6443L242.181 98.7695C242.19 98.7857 242.196 98.8036 242.197 98.822C242.199 98.8405 242.197 98.8591 242.191 98.8766C242.179 98.8911 242.165 98.9029 242.148 98.911C242.131 98.9191 242.113 98.9234 242.094 98.9235L240.283 99.082C240.243 99.0855 240.204 99.0753 240.172 99.0532C240.154 99.0417 240.139 99.0268 240.127 99.0093C240.115 98.9919 240.106 98.9722 240.102 98.9515L238.96 93.566L238.417 93.6135C238.396 93.6156 238.375 93.6136 238.354 93.6074C238.334 93.6013 238.315 93.5912 238.299 93.5776C238.266 93.5524 238.243 93.516 238.236 93.4753L237.896 91.8871C237.887 91.8709 237.882 91.853 237.88 91.8346C237.879 91.8161 237.881 91.7975 237.887 91.7801C237.9 91.7648 237.916 91.7526 237.933 91.7443C237.951 91.7361 237.971 91.732 237.991 91.7325L240.499 91.5131C240.538 91.5082 240.577 91.5185 240.609 91.5419C240.642 91.5672 240.664 91.6036 240.672 91.6443Z" fill="white"/>
<path d="M243.538 91.3868C243.889 91.1822 244.281 91.0608 244.686 91.0321C245.109 90.9931 245.536 91.0423 245.939 91.1767C246.355 91.326 246.739 91.554 247.069 91.8483C247.444 92.1751 247.755 92.5684 247.987 93.0083C248.266 93.526 248.468 94.0821 248.586 94.6585C248.723 95.2105 248.773 95.7807 248.733 96.3482C248.697 96.7986 248.559 97.2348 248.329 97.624C248.129 97.9675 247.847 98.2566 247.509 98.4661C247.159 98.6707 246.766 98.792 246.361 98.8208C245.938 98.8598 245.511 98.8106 245.108 98.6762C244.692 98.527 244.308 98.299 243.979 98.0046C243.604 97.6779 243.292 97.2846 243.06 96.8445C242.781 96.3268 242.579 95.7708 242.462 95.1943C242.324 94.6424 242.274 94.0722 242.314 93.5047C242.35 93.0543 242.489 92.6181 242.718 92.2289C242.919 91.8854 243.2 91.5962 243.538 91.3868ZM245.122 96.279C245.205 96.4069 245.318 96.5117 245.453 96.5835C245.587 96.6553 245.737 96.6918 245.89 96.6895C246.028 96.6731 246.158 96.6132 246.261 96.5185C246.363 96.4237 246.433 96.2988 246.46 96.1619C246.569 95.7215 246.564 95.2604 246.443 94.8229C246.364 94.3557 246.177 93.9132 245.898 93.53C245.816 93.4021 245.702 93.2973 245.568 93.2255C245.433 93.1537 245.283 93.1172 245.131 93.1196C244.992 93.1359 244.862 93.1958 244.76 93.2906C244.657 93.3853 244.587 93.5102 244.56 93.6471C244.451 94.0874 244.456 94.5487 244.577 94.9861C244.658 95.4506 244.844 95.8904 245.121 96.2713L245.122 96.279Z" fill="white"/>
<path d="M272.172 97.964C270.728 92.1043 272.893 89.6421 273.954 86.4522C275.016 83.2623 275.86 75.9234 273.046 68.6812L269.287 67.3614C267.222 66.6484 265.037 65.8996 262.872 65.1029C254.022 61.871 247.658 59.1305 237.962 57.8524" stroke="#3BFF58" stroke-width="0.57561" stroke-linecap="round" stroke-linejoin="round"/>
<path d="M186.772 107.477C187.496 107.647 188.229 107.768 188.969 107.84V107.84C190.091 106.578 191.23 105.331 192.331 104.086C188.742 104.277 183.361 103.438 181.746 100.39C180.728 98.7492 179.491 97.2555 178.068 95.9506C176.446 94.413 176.175 91.4937 176.189 90.2368C176.084 88.1853 175.519 86.1836 174.536 84.3799L174.443 84.2878C172.152 86.63 170.628 88.2272 170.628 88.2272C171.445 89.7032 172 91.3099 172.268 92.9758C172.546 95.3552 175.099 97.4199 176.148 98.9306C177.197 100.441 176.444 102.757 181.02 105.299C182.796 106.279 184.7 107.004 186.678 107.455L186.754 107.448" stroke="#3BFF58" stroke-width="0.57561" stroke-linecap="round" stroke-linejoin="round"/>
<path d="M221.946 54.5164C223.926 54.3432 225.391 52.5973 225.218 50.6169C225.045 48.6366 223.299 47.1716 221.319 47.3449C219.338 47.5181 217.873 49.264 218.047 51.2444C218.22 53.2247 219.966 54.6897 221.946 54.5164Z" fill="#E3F0FF"/>
<path d="M145.74 231.375C145.685 231.618 139.641 225.498 138.05 223.249C137.876 221.885 142.444 210.869 145.974 211.947C149.505 213.025 148.512 211.895 148.512 211.895L154.532 216.854C154.532 216.854 148.07 220.755 145.74 231.375Z" fill="#327BED"/>
</svg>
